<?xml version="1.0" encoding="UTF-8"?>
<svg xmlns="http://www.w3.org/2000/svg" xmlns:xlink="http://www.w3.org/1999/xlink" id="Export" version="1.1" viewBox="0 0 320 180">
  <defs>
    <clipPath id="clippath">
      <rect x="64" y="72" width="40" height="40" fill="none" stroke-width="0"></rect>
    </clipPath>
  </defs>
  <g>
    <g>
      <g>
        <path d="M192,24.13v115.73c0,2.28-1.67,4.13-3.72,4.13H35.72c-2.06,0-3.72-1.85-3.72-4.13V24.13c0-2.28,1.67-4.13,3.72-4.13h152.56c2.06,0,3.72,1.85,3.72,4.13Z" fill="#fff" stroke-width="0"></path>
        <path d="M188.28,21c1.5,0,2.72,1.41,2.72,3.13v115.73c0,1.73-1.22,3.13-2.72,3.13H35.72c-1.5,0-2.72-1.41-2.72-3.13V24.13c0-1.73,1.22-3.13,2.72-3.13h152.56M188.28,20H35.72c-2.06,0-3.72,1.85-3.72,4.13v115.73c0,2.28,1.67,4.13,3.72,4.13h152.56c2.06,0,3.72-1.85,3.72-4.13V24.13c0-2.28-1.67-4.13-3.72-4.13h0Z" fill="#bcc8d4" stroke-width="0"></path>
      </g>
      <g>
        <path d="M35.72,20h152.56c2.06,0,3.72,1.79,3.72,4v18H32v-18c0-2.21,1.67-4,3.72-4Z" fill="#bcc8d4" stroke-width="0"></path>
        <g>
          <path d="M43.5,34c-1.65,0-3-1.35-3-3s1.35-3,3-3,3,1.35,3,3-1.35,3-3,3ZM43.5,29c-1.1,0-2,.9-2,2s.9,2,2,2,2-.9,2-2-.9-2-2-2Z" fill="#fff" stroke-width="0"></path>
          <path d="M53.5,34c-1.65,0-3-1.35-3-3s1.35-3,3-3,3,1.35,3,3-1.35,3-3,3ZM53.5,29c-1.1,0-2,.9-2,2s.9,2,2,2,2-.9,2-2-.9-2-2-2Z" fill="#fff" stroke-width="0"></path>
          <path d="M63.5,34c-1.65,0-3-1.35-3-3s1.35-3,3-3,3,1.35,3,3-1.35,3-3,3ZM63.5,29c-1.1,0-2,.9-2,2s.9,2,2,2,2-.9,2-2-.9-2-2-2Z" fill="#fff" stroke-width="0"></path>
        </g>
      </g>
    </g>
    <g>
      <path d="M118.29,57c.34,0,.71.51.71,1.18v67.64c0,.68-.38,1.18-.71,1.18H49.71c-.34,0-.71-.51-.71-1.18V58.18c0-.68.38-1.18.71-1.18h68.57M118.29,56H49.71c-.95,0-1.71.98-1.71,2.18v67.64c0,1.21.77,2.18,1.71,2.18h68.57c.95,0,1.71-.98,1.71-2.18V58.18c0-1.2-.77-2.18-1.71-2.18h0Z" fill="#bcc8d4" stroke-width="0"></path>
      <g clip-path="url(#clippath)">
        <path d="M92.33,86.17c-2.76,0-5-2.24-5-5s2.24-5,5-5,5,2.24,5,5-2.24,5-5,5ZM92.33,77c-2.3,0-4.17,1.87-4.17,4.17s1.87,4.17,4.17,4.17,4.17-1.87,4.17-4.17-1.87-4.17-4.17-4.17Z" fill="#95caeb" stroke-width="0"></path>
        <path d="M80.55,83.17c-.32-.53-1.1-.54-1.42,0-2.87,4.72-13.46,22.17-13.46,22.17h18.33s2.59-4.24,5.02-8.21l-8.47-13.95Z" fill="#dbedf8" stroke-width="0"></path>
        <path d="M102.33,105.33l-8.46-13.84c-.32-.53-1.1-.53-1.42,0-2.15,3.52-8.46,13.84-8.46,13.84h18.33Z" fill="#95caeb" stroke-width="0"></path>
      </g>
    </g>
    <g>
      <rect x="128" y="88" width="48" height="4" rx="2" ry="2" fill="#dbe2e8" stroke-width="0"></rect>
      <rect x="128" y="100" width="32" height="4" rx="2" ry="2" fill="#dbe2e8" stroke-width="0"></rect>
      <rect x="128" y="76" width="48" height="4" rx="2" ry="2" fill="#dbe2e8" stroke-width="0"></rect>
    </g>
  </g>
  <g>
    <rect x="160" y="130" width="30" height="30" fill="#95caeb" stroke-width="0"></rect>
    <rect x="180" y="130" width="108" height="30" fill="#dbedf8" stroke-width="0"></rect>
    <path d="M195,153c-.18,0-.36-.1-.45-.28l-7.5-15c-.12-.25-.02-.55.22-.67.25-.12.55-.02.67.22l7.5,15c.12.25.02.55-.22.67-.07.04-.15.05-.22.05Z" fill="#1474c4" stroke-width="0"></path>
    <path d="M201,153c-.18,0-.36-.1-.45-.28l-7.5-15c-.12-.25-.02-.55.22-.67.25-.12.55-.02.67.22l7.5,15c.12.25.02.55-.22.67-.07.04-.15.05-.22.05Z" fill="#1474c4" stroke-width="0"></path>
    <path d="M207,153c-.18,0-.36-.1-.45-.28l-7.5-15c-.12-.25-.02-.55.22-.67.25-.12.55-.02.67.22l7.5,15c.12.25.02.55-.22.67-.07.04-.15.05-.22.05Z" fill="#1474c4" stroke-width="0"></path>
    <path d="M213,153c-.18,0-.36-.1-.45-.28l-7.5-15c-.12-.25-.02-.55.22-.67.25-.12.55-.02.67.22l7.5,15c.12.25.02.55-.22.67-.07.04-.15.05-.22.05Z" fill="#1474c4" stroke-width="0"></path>
    <path d="M219,153c-.18,0-.36-.1-.45-.28l-7.5-15c-.12-.25-.02-.55.22-.67s.55-.02.67.22l7.5,15c.12.25.02.55-.22.67-.07.04-.15.05-.22.05Z" fill="#1474c4" stroke-width="0"></path>
    <path d="M225,153c-.18,0-.36-.1-.45-.28l-7.5-15c-.12-.25-.02-.55.22-.67.25-.12.55-.02.67.22l7.5,15c.12.25.02.55-.22.67-.07.04-.15.05-.22.05Z" fill="#1474c4" stroke-width="0"></path>
    <path d="M231,153c-.18,0-.36-.1-.45-.28l-7.5-15c-.12-.25-.02-.55.22-.67s.55-.02.67.22l7.5,15c.12.25.02.55-.22.67-.07.04-.15.05-.22.05Z" fill="#1474c4" stroke-width="0"></path>
    <path d="M237,153c-.18,0-.36-.1-.45-.28l-7.5-15c-.12-.25-.02-.55.22-.67.25-.12.55-.02.67.22l7.5,15c.12.25.02.55-.22.67-.07.04-.15.05-.22.05Z" fill="#1474c4" stroke-width="0"></path>
    <path d="M243,153c-.18,0-.36-.1-.45-.28l-7.5-15c-.12-.25-.02-.55.22-.67s.55-.02.67.22l7.5,15c.12.25.02.55-.22.67-.07.04-.15.05-.22.05Z" fill="#1474c4" stroke-width="0"></path>
    <path d="M276,148.5c-1.93,0-3.5-1.57-3.5-3.5s1.57-3.5,3.5-3.5,3.5,1.57,3.5,3.5-1.57,3.5-3.5,3.5ZM276,142.5c-1.38,0-2.5,1.12-2.5,2.5s1.12,2.5,2.5,2.5,2.5-1.12,2.5-2.5-1.12-2.5-2.5-2.5Z" fill="#1474c4" stroke-width="0"></path>
    <path d="M264,148.5c-1.93,0-3.5-1.57-3.5-3.5s1.57-3.5,3.5-3.5,3.5,1.57,3.5,3.5-1.57,3.5-3.5,3.5ZM264,142.5c-1.38,0-2.5,1.12-2.5,2.5s1.12,2.5,2.5,2.5,2.5-1.12,2.5-2.5-1.12-2.5-2.5-2.5Z" fill="#1474c4" stroke-width="0"></path>
    <path d="M160,97c0-1.66,1.34-3,3-3h30v30h-33v-27Z" fill="#95caeb" stroke-width="0"></path>
    <path d="M180,97c0-1.66,1.34-3,3-3h102c1.66,0,3,1.34,3,3v27h-108v-27Z" fill="#dbedf8" stroke-width="0"></path>
    <path d="M195,117c-.18,0-.36-.1-.45-.28l-7.5-15c-.12-.25-.02-.55.22-.67.25-.12.55-.02.67.22l7.5,15c.12.25.02.55-.22.67-.07.04-.15.05-.22.05Z" fill="#1474c4" stroke-width="0"></path>
    <path d="M201,117c-.18,0-.36-.1-.45-.28l-7.5-15c-.12-.25-.02-.55.22-.67.25-.12.55-.02.67.22l7.5,15c.12.25.02.55-.22.67-.07.04-.15.05-.22.05Z" fill="#1474c4" stroke-width="0"></path>
    <path d="M207,117c-.18,0-.36-.1-.45-.28l-7.5-15c-.12-.25-.02-.55.22-.67.25-.12.55-.02.67.22l7.5,15c.12.25.02.55-.22.67-.07.04-.15.05-.22.05Z" fill="#1474c4" stroke-width="0"></path>
    <path d="M213,117c-.18,0-.36-.1-.45-.28l-7.5-15c-.12-.25-.02-.55.22-.67.25-.12.55-.02.67.22l7.5,15c.12.25.02.55-.22.67-.07.04-.15.05-.22.05Z" fill="#1474c4" stroke-width="0"></path>
    <path d="M219,117c-.18,0-.36-.1-.45-.28l-7.5-15c-.12-.25-.02-.55.22-.67s.55-.02.67.22l7.5,15c.12.25.02.55-.22.67-.07.04-.15.05-.22.05Z" fill="#1474c4" stroke-width="0"></path>
    <path d="M225,117c-.18,0-.36-.1-.45-.28l-7.5-15c-.12-.25-.02-.55.22-.67.25-.12.55-.02.67.22l7.5,15c.12.25.02.55-.22.67-.07.04-.15.05-.22.05Z" fill="#1474c4" stroke-width="0"></path>
    <path d="M231,117c-.18,0-.36-.1-.45-.28l-7.5-15c-.12-.25-.02-.55.22-.67s.55-.02.67.22l7.5,15c.12.25.02.55-.22.67-.07.04-.15.05-.22.05Z" fill="#1474c4" stroke-width="0"></path>
    <path d="M237,117c-.18,0-.36-.1-.45-.28l-7.5-15c-.12-.25-.02-.55.22-.67.25-.12.55-.02.67.22l7.5,15c.12.25.02.55-.22.67-.07.04-.15.05-.22.05Z" fill="#1474c4" stroke-width="0"></path>
    <path d="M243,117c-.18,0-.36-.1-.45-.28l-7.5-15c-.12-.25-.02-.55.22-.67s.55-.02.67.22l7.5,15c.12.25.02.55-.22.67-.07.04-.15.05-.22.05Z" fill="#1474c4" stroke-width="0"></path>
    <path d="M276,112.5c-1.93,0-3.5-1.57-3.5-3.5s1.57-3.5,3.5-3.5,3.5,1.57,3.5,3.5-1.57,3.5-3.5,3.5ZM276,106.5c-1.38,0-2.5,1.12-2.5,2.5s1.12,2.5,2.5,2.5,2.5-1.12,2.5-2.5-1.12-2.5-2.5-2.5Z" fill="#1474c4" stroke-width="0"></path>
    <path d="M264,112.5c-1.93,0-3.5-1.57-3.5-3.5s1.57-3.5,3.5-3.5,3.5,1.57,3.5,3.5-1.57,3.5-3.5,3.5ZM264,106.5c-1.38,0-2.5,1.12-2.5,2.5s1.12,2.5,2.5,2.5,2.5-1.12,2.5-2.5-1.12-2.5-2.5-2.5Z" fill="#1474c4" stroke-width="0"></path>
    <rect x="166" y="124" width="24" height="6" fill="#1474c4" stroke-width="0"></rect>
    <rect x="180" y="124" width="102" height="6" fill="#95caeb" stroke-width="0"></rect>
  </g>
  <g>
    <path d="M224.5,91.5h-1v-22.6c0-6.56-5.34-11.9-11.9-11.9h-22.6v-1h22.6c7.11,0,12.9,5.79,12.9,12.9v22.6Z" fill="#1474c4" stroke-width="0"></path>
    <g>
      <circle cx="224" cy="94" r="2.5" fill="#fff" stroke-width="0"></circle>
      <path d="M224,97c-1.65,0-3-1.35-3-3s1.35-3,3-3,3,1.35,3,3-1.35,3-3,3ZM224,92c-1.1,0-2,.9-2,2s.9,2,2,2,2-.9,2-2-.9-2-2-2Z" fill="#1474c4" stroke-width="0"></path>
    </g>
    <g>
      <circle cx="191.5" cy="56.5" r="2.5" fill="#fff" stroke-width="0"></circle>
      <path d="M191.5,59.5c-1.65,0-3-1.35-3-3s1.35-3,3-3,3,1.35,3,3-1.35,3-3,3ZM191.5,54.5c-1.1,0-2,.9-2,2s.9,2,2,2,2-.9,2-2-.9-2-2-2Z" fill="#1474c4" stroke-width="0"></path>
    </g>
  </g>
  <rect width="320" height="180" fill="none" stroke-width="0"></rect>
</svg>
